<svg width="500" height="500" viewBox="0 0 500 500" fill="none" xmlns="http://www.w3.org/2000/svg">
<path fill-rule="evenodd" clip-rule="evenodd" d="M212.668 224.857V253H221.148V224.857H212.668ZM213.145 218.179C214.064 218.921 215.318 219.292 216.908 219.292C218.463 219.292 219.682 218.886 220.565 218.073C221.484 217.26 221.943 216.2 221.943 214.893C221.943 213.515 221.501 212.455 220.618 211.713C219.735 210.936 218.498 210.547 216.908 210.547C215.353 210.547 214.117 210.953 213.198 211.766C212.279 212.579 211.82 213.621 211.82 214.893C211.82 216.306 212.262 217.402 213.145 218.179ZM118.338 213.78V253H120.087H122.631H126.818V236.146C126.818 235.475 126.941 234.856 127.189 234.291C127.471 233.726 127.842 233.231 128.302 232.807C128.761 232.348 129.309 232.012 129.945 231.8C130.581 231.553 131.27 231.429 132.012 231.429C132.966 231.394 133.761 231.57 134.397 231.959C135.068 232.312 135.563 232.86 135.881 233.602C136.199 234.344 136.358 235.28 136.358 236.411V253H144.891V235.722C144.891 233.249 144.52 231.164 143.778 229.468C143.036 227.737 141.94 226.447 140.492 225.599C139.043 224.716 137.259 224.274 135.139 224.274C133.584 224.274 132.1 224.592 130.687 225.228C129.273 225.864 128.054 226.712 127.03 227.772C126.901 227.905 126.777 228.041 126.659 228.178V213.78H118.338ZM95.7948 252.152C98.1622 253.071 100.741 253.53 103.533 253.53C105.335 253.53 107.119 253.318 108.886 252.894C110.688 252.435 112.313 251.816 113.762 251.039C115.246 250.262 116.429 249.378 117.313 248.389L112.967 241.499C112.295 242.206 111.518 242.842 110.635 243.407C109.787 243.937 108.85 244.361 107.826 244.679C106.801 244.997 105.723 245.156 104.593 245.156C102.932 245.156 101.413 244.909 100.035 244.414C98.6922 243.919 97.5438 243.195 96.5898 242.241C95.6358 241.287 94.8938 240.156 94.3638 238.849C93.8338 237.506 93.5688 236.022 93.5688 234.397C93.5688 232.736 93.8338 231.235 94.3638 229.892C94.8938 228.549 95.6182 227.419 96.5368 226.5C97.4908 225.546 98.5862 224.822 99.8228 224.327C101.095 223.797 102.437 223.532 103.851 223.532C104.981 223.532 106.041 223.691 107.031 224.009C108.02 224.327 108.921 224.786 109.734 225.387C110.582 225.952 111.377 226.624 112.119 227.401L117.631 221.094C116.571 219.857 115.299 218.797 113.815 217.914C112.366 216.995 110.794 216.306 109.098 215.847C107.402 215.388 105.67 215.158 103.904 215.158C101.077 215.158 98.4625 215.635 96.0598 216.589C93.6925 217.543 91.6255 218.886 89.8588 220.617C88.1275 222.313 86.7672 224.327 85.7778 226.659C84.7885 228.991 84.2938 231.535 84.2938 234.291C84.2938 237.118 84.7532 239.715 85.6718 242.082C86.6258 244.414 87.9685 246.446 89.6998 248.177C91.4312 249.873 93.4628 251.198 95.7948 252.152ZM158.128 253.477C155.761 253.477 153.641 252.859 151.768 251.622C149.931 250.35 148.465 248.619 147.369 246.428C146.274 244.202 145.726 241.693 145.726 238.902C145.726 236.04 146.274 233.514 147.369 231.323C148.465 229.132 149.966 227.419 151.874 226.182C153.782 224.91 155.955 224.274 158.393 224.274C159.736 224.274 160.955 224.468 162.05 224.857C163.181 225.246 164.17 225.793 165.018 226.5C165.676 227.02 166.259 227.615 166.767 228.284V224.857H175.194V253H166.608V249.646C166.084 250.256 165.484 250.809 164.806 251.304C163.888 251.975 162.863 252.505 161.732 252.894C160.602 253.283 159.4 253.477 158.128 253.477ZM180.769 232.277V253H189.249V232.277H192.664H194.708H197.646V253H206.126V232.277H211.585V224.857H206.126V217.755H197.646V224.857H194.708H192.664H189.249V217.755H180.769V224.857H175.787V232.277H180.769ZM224.876 253V224.857H232.932L233.091 228.303C233.242 228.122 233.4 227.945 233.568 227.772C234.593 226.712 235.812 225.864 237.225 225.228C238.638 224.592 240.122 224.274 241.677 224.274C243.797 224.274 245.581 224.716 247.03 225.599C248.479 226.447 249.574 227.737 250.316 229.468C251.058 231.164 251.429 233.249 251.429 235.722V253H242.896V236.411C242.896 235.28 242.737 234.344 242.419 233.602C242.101 232.86 241.606 232.312 240.935 231.959C240.299 231.57 239.504 231.394 238.55 231.429C237.808 231.429 237.119 231.553 236.483 231.8C235.847 232.012 235.299 232.348 234.84 232.807C234.381 233.231 234.01 233.726 233.727 234.291C233.48 234.856 233.356 235.475 233.356 236.146V253H229.169H226.625H224.876ZM260.268 264.183C262.564 264.854 264.861 265.19 267.158 265.19C269.525 265.19 271.645 264.872 273.518 264.236C275.39 263.6 276.98 262.646 278.287 261.374C279.63 260.137 280.637 258.618 281.309 256.816C282.015 255.049 282.368 253.018 282.368 250.721V224.857H274.312L274.162 227.869C273.908 227.595 273.622 227.333 273.305 227.083C272.669 226.518 271.927 226.041 271.079 225.652C270.267 225.228 269.366 224.892 268.376 224.645C267.422 224.398 266.415 224.274 265.355 224.274C262.882 224.274 260.656 224.91 258.677 226.182C256.699 227.419 255.144 229.132 254.013 231.323C252.883 233.478 252.317 235.969 252.317 238.796C252.317 241.552 252.883 243.99 254.013 246.11C255.179 248.195 256.752 249.838 258.73 251.039C260.745 252.205 263.023 252.788 265.568 252.788C267.158 252.788 268.659 252.505 270.073 251.94C271.486 251.339 272.669 250.562 273.623 249.608C273.646 249.586 273.668 249.564 273.69 249.543C273.708 249.525 273.725 249.508 273.742 249.491C273.774 249.459 273.805 249.428 273.836 249.396V250.88C273.836 252.505 273.553 253.848 272.987 254.908C272.422 256.003 271.574 256.816 270.443 257.346C269.313 257.876 267.846 258.141 266.044 258.141C265.02 258.141 264.013 258.035 263.023 257.823C262.034 257.611 261.08 257.311 260.161 256.922C259.278 256.569 258.465 256.145 257.724 255.65L254.755 261.586C256.169 262.646 258.006 263.512 260.268 264.183ZM270.921 245.315C269.931 245.916 268.747 246.216 267.37 246.216C266.027 246.216 264.861 245.916 263.871 245.315C262.882 244.679 262.105 243.813 261.539 242.718C261.009 241.623 260.745 240.333 260.745 238.849C260.745 237.365 261.009 236.075 261.539 234.98C262.105 233.849 262.882 232.984 263.871 232.383C264.861 231.747 266.027 231.429 267.37 231.429C268.747 231.429 269.931 231.747 270.921 232.383C271.945 232.984 272.723 233.849 273.253 234.98C273.818 236.075 274.1 237.365 274.1 238.849C274.1 240.333 273.818 241.623 273.253 242.718C272.723 243.813 271.945 244.679 270.921 245.315ZM293.072 253L281.942 215.9H291.111L296.676 235.404C296.923 236.287 297.135 237.188 297.312 238.107C297.518 238.965 297.674 239.791 297.78 240.582C297.93 239.763 298.092 238.99 298.266 238.266C298.478 237.347 298.743 236.393 299.061 235.404L304.573 220.723H311.781L317.187 235.404C317.611 236.57 317.964 237.665 318.247 238.69C318.396 239.232 318.526 239.763 318.636 240.285C318.653 240.151 318.67 240.016 318.687 239.88L318.724 239.591C318.794 239.026 318.9 238.407 319.042 237.736C319.183 237.029 319.377 236.234 319.625 235.351L325.137 215.9H334.094L322.964 253H316.074L307.819 232.961L300.174 253H293.072ZM336.573 251.622C338.445 252.859 340.565 253.477 342.933 253.477C344.205 253.477 345.406 253.283 346.537 252.894C347.667 252.505 348.692 251.975 349.611 251.304C350.288 250.809 350.889 250.256 351.413 249.646V253H359.999V226.066L371.259 253H377.937L390.286 224.857H381.011L374.882 242.927L368.874 224.857H359.999H359.493H351.572V228.284C351.063 227.615 350.48 227.02 349.823 226.5C348.975 225.793 347.985 225.246 346.855 224.857C345.759 224.468 344.54 224.274 343.198 224.274C340.76 224.274 338.587 224.91 336.679 226.182C334.771 227.419 333.269 229.132 332.174 231.323C331.078 233.514 330.531 236.04 330.531 238.902C330.531 241.693 331.078 244.202 332.174 246.428C333.269 248.619 334.735 250.35 336.573 251.622ZM348.657 245.421C347.703 246.022 346.572 246.322 345.265 246.322C343.993 246.322 342.88 246.022 341.926 245.421C341.007 244.82 340.283 243.972 339.753 242.877C339.223 241.746 338.958 240.421 338.958 238.902C338.958 237.383 339.223 236.075 339.753 234.98C340.283 233.849 341.007 232.984 341.926 232.383C342.88 231.747 343.993 231.429 345.265 231.429C346.572 231.429 347.703 231.747 348.657 232.383C349.611 232.984 350.353 233.849 350.883 234.98C351.413 236.075 351.678 237.383 351.678 238.902C351.678 240.421 351.413 241.746 350.883 242.877C350.353 243.972 349.611 244.82 348.657 245.421ZM394.993 251.675C397.29 252.912 399.993 253.53 403.102 253.53C404.374 253.53 405.646 253.371 406.918 253.053C408.226 252.77 409.498 252.329 410.734 251.728C411.971 251.127 413.137 250.35 414.232 249.396L410.257 243.778C409.162 244.626 408.138 245.227 407.184 245.58C406.265 245.933 405.205 246.11 404.003 246.11C402.272 246.11 400.77 245.792 399.498 245.156C398.262 244.52 397.308 243.637 396.636 242.506C396.341 241.965 396.115 241.382 395.956 240.757H415.292L415.345 238.478C415.416 236.429 415.133 234.538 414.497 232.807C413.862 231.076 412.943 229.574 411.741 228.302C410.54 227.03 409.109 226.041 407.448 225.334C405.823 224.627 404.021 224.274 402.042 224.274C399.958 224.274 398.032 224.645 396.266 225.387C394.534 226.094 393.033 227.118 391.76 228.461C390.488 229.768 389.499 231.323 388.792 233.125C388.086 234.927 387.732 236.906 387.732 239.061C387.732 241.852 388.368 244.343 389.641 246.534C390.913 248.689 392.697 250.403 394.993 251.675ZM395.942 235.987C396.062 235.486 396.223 235.027 396.424 234.609C396.919 233.549 397.643 232.754 398.597 232.224C399.587 231.659 400.771 231.376 402.148 231.376C403.138 231.376 404.021 231.57 404.798 231.959C405.576 232.348 406.194 232.895 406.654 233.602C407.148 234.273 407.431 235.051 407.501 235.934V235.987H395.942Z" fill="#222222"/>
<path fill-rule="evenodd" clip-rule="evenodd" d="M162.709 239.945C162.188 239.945 161.761 239.518 161.761 238.997C161.761 238.476 162.188 238.049 162.709 238.049C163.23 238.049 163.657 238.476 163.657 238.997C163.657 239.518 163.23 239.945 162.709 239.945ZM159.553 239.945C159.032 239.945 158.61 239.518 158.61 238.997C158.61 238.476 159.032 238.049 159.553 238.049C160.079 238.049 160.501 238.476 160.501 238.997C160.501 239.518 160.079 239.945 159.553 239.945ZM156.402 239.945C155.876 239.945 155.454 239.518 155.454 238.997C155.454 238.476 155.876 238.049 156.402 238.049C156.923 238.049 157.345 238.476 157.345 238.997C157.345 239.518 156.923 239.945 156.402 239.945ZM159.803 233.002C155.558 232.914 152.068 235.533 152.001 238.841C151.98 239.992 152.376 241.075 153.079 242.002C154.287 243.554 152.964 246.221 152.964 246.221L156.86 244.544C157.699 244.809 158.61 244.966 159.568 244.981C163.808 245.065 167.303 242.45 167.365 239.143C167.433 235.836 164.048 233.086 159.803 233.002Z" fill="white"/>
</svg>
